# xmcd
#
# Track frame offsets:
#	150
#	13964
#	27444
#	43436
#	58082
#	74439
#	89891
#	103826
#
# Disc length: 1586 seconds
#
# Revision: 0
# Processed by: cddbd v1.5.2PL0 Copyright (c) Steve Scherf et al.
# Submitted via: EasyCDDAExtractor 2011.3.0.0
#
DISCID=7d063008
DTITLE=Jefferson Noizet - Carte de visite
DYEAR=2011
DGENRE=
TTITLE0=Carte de visite
TTITLE1=Variables d'ajustement
TTITLE2=Madison
TTITLE3=Le sens du bon sens
TTITLE4=Elle m'attend
TTITLE5=Garonne blues
TTITLE6=Ca sent bon le sud
TTITLE7=Rihivali
EXTD=
EXTT0=
EXTT1=
EXTT2=
EXTT3=
EXTT4=
EXTT5=
EXTT6=
EXTT7=
PLAYORDER=
